<svg class="main-svg" xmlns="http://www.w3.org/2000/svg" xmlns:xlink="http://www.w3.org/1999/xlink" width="700" height="500" viewBox="0 0 700 500"><rect x="0" y="0" width="700" height="500" style="fill: rgb(255, 255, 255); fill-opacity: 1;"/><defs id="defs-0b14f3"><g class="clips"><clipPath id="clip0b14f3geo"><rect x="179.69444727700062" y="99.34530445989526" width="340.6111054459988" height="320.65469554010474"/></clipPath></g><g class="gradients"/></defs><g class="bglayer"/><g class="layer-below"><g class="imagelayer"/><g class="shapelayer"/></g><g class="cartesianlayer"/><g class="polarlayer"/><g class="ternarylayer"/><g class="geolayer"><g class="geo geo" clip-path="url('#clip0b14f3geo')"><g class="layer bg"><rect x="179.69444727700062" y="99.34530445989526" width="340.6111054459988" height="320.65469554010474" style="pointer-events: all; fill: rgb(255, 255, 255); fill-opacity: 1;"/></g><g class="layer land"><path d="M391.87788204608023,99.34530445989526L393.9093187226392,104.975985126762L381.8250124814528,133.4217304500719L360.90293003402564,113.57068138531804L358.10550312648525,99.34530445989526L391.87788204608023,99.34530445989526ZM407.864288090044,420L402.92745770859915,418.71567834696816L400.83321297456143,420L179.69444727700062,420L179.69444727700062,258.6775921569262L189.91901486022445,254.8211611965039L205.9713022552332,248.48159010596896L209.93928340905552,245.301527812029L216.4323434789467,239.79241011408703L233.92753311170912,191.35295626837092L261.34267562902744,177.46897227061936L277.93605136319377,178.3785678213046L281.9040325170163,171.3901410021765L298.67777103090174,169.56142534676883L302.2850266252858,176.8622532221343L315.99259788394494,160.0754240911249L312.2049795098418,149.59796065142882L311.30316561124573,147.4311695617389L311.12280283152654,142.15507414980925L310.4013517126498,127.77864760866964L303.36720330360095,110.71166818954839L302.2850266252858,108.16539147567778L302.2850266252858,104.975985126762L302.19438380334987,99.34530445989526L338.79403850849394,99.34530445989526L338.79403850849394,99.34530445989526L332.94669917754976,109.75735958264681L337.2754058908105,123.68892085557513L338.3575825691257,126.83592324453207L338.5379453488449,129.6621973480328L338.7183081285641,140.28819924650975L359.0993022368337,148.3602012988158L358.9189394571145,154.22993125745938L358.7385766773953,160.6893394884653L369.9210690199857,157.00185471236296L379.1195707856649,154.22993125745938L381.6446497017336,152.0702324302365L390.4824259079745,144.6404007050121L413.02777337287444,158.23208210800613L422.58700069799204,169.2564109589705L436.29457195665117,159.1540525832595L467.49733284807274,143.3982849857557L492.7481220087606,131.54322215280104L512.7683905575918,137.48323865930524L514.2112927953455,145.88142372481047L520.3055527229994,145.97934373698465L520.3055527229994,420ZM427.23006621562985,99.34530445989526L422.22627513855355,111.98306432772506L398.95947655477687,113.57068138531804L396.29689410341985,99.34530445989526L427.23006621562985,99.34530445989526Z" style="stroke: none; fill: rgb(243, 243, 243); fill-opacity: 1;"/></g><g class="layer lakes"><path style="stroke: none; fill: rgb(255, 255, 255); fill-opacity: 1;"/></g><g class="layer countries"><path d="M179.69444727700062,258.6775921569262L189.91901486022445,254.8211611965039L192.80481933573154,265.99297034144047L202.18368388112992,266.5636154576175L211.5625484265283,279.3454824077328L225.45048246490674,293.980447714355L235.73116090890107,291.73820750006826L253.22635054166344,305.69764005320826L257.73542003464354,308.47407095054973L263.5070289856578,307.91919292422244L263.5070289856578,307.91919292422244L273.06625631077543,315.94507332378043L301.9243010658473,321.45551161558114L291.82398540157214,342.21541023187456L289.2989064855035,363.5016307113383L283.7076603142082,368.57777978791273L274.509158548529,365.9081864376228L275.2306096674059,373.3715582375303L260.6212245101507,390.0351465747651L260.2604989507122,403.13593800242074L269.8197262758298,398.6938195906305L276.67351190515944,411.20445743184473L275.9520607862826,419.49069389100214L276.2305666466444,420L179.69444727700062,420ZM427.23006621562985,99.34530445989526L422.22627513855355,111.98306432772506L398.95947655477687,113.57068138531804L396.29689410341985,99.34530445989526L427.23006621562985,99.34530445989526ZM520.3055527229994,307.8649428563602L518.5399995086063,308.7514335757105L517.4578228302911,306.8088250516603L508.0789582848927,291.45769159411907L493.2892103479183,289.7734926001965L491.30521977100716,279.911024553546L477.5976485123479,276.23115766091723L474.71184403684066,284.42766009110073L463.7097144739695,277.93068742162495L464.9722539320039,269.128803460738L450.0021432153104,266.5636154576175L440.4429158901928,256.2581758634233L432.3265908028288,235.719761450428L433.94985582030165,224.6078418665245L428.899697988164,206.88794257380368L421.685186799396,195.25244897328253L427.27643297069125,186.23758436380785L422.58700069799204,169.2564109589705L436.29457195665117,159.1540525832595L467.49733284807274,143.3982849857557L492.7481220087606,131.54322215280104L512.7683905575918,137.48323865930524L514.2112927953455,145.88142372481047L520.3055527229994,145.97934373698465L520.3055527229994,307.8649428563602ZM479.76200186897825,348.4429995544692L478.3190996312247,360.8233018683318L466.95624450891506,360.8233018683318L470.9242256627375,367.2435551599476L464.25080281312717,386.347371696683L460.46318443902385,391.08721369419527L442.9679948062615,391.8758039250092L432.86767914198634,398.43213064121505L416.27430340782007,396.33706112057143L387.59662143246726,388.7190748271523L383.08755193948724,378.4157530374348L363.24764617037533,383.7079468313202L360.90293003402564,389.2456353873845L348.8186237928394,385.0282130305286L338.5379453488449,384.23618638613016L329.519806362885,378.9457766796197L332.5859736181114,371.7752676108644L331.8645224992345,366.44247139618597L337.81649422996816,364.8390658378353L348.09717267396246,373.1056230653719L350.80261436975053,365.1064148790251L368.4781667822321,366.44247139618597L382.9071891597681,361.09134274096095L392.46641648488566,362.1630436592709L398.7791137750577,368.0442270499036L400.58274157224963,362.9663342789297L397.69693709674243,343.5713794658882L404.91144828551046,339.77164613868376L412.1259594742784,325.84952904624333L426.91570741125275,335.69003766310925L438.2785625335624,323.10475475451767L445.31271094261115,320.905366289885L460.8239099984624,330.2309152975972L470.20277454386064,328.58936930392565L479.40127630953987,334.32708211574186L477.7780112920671,338.1403062076158ZM520.3055527229994,412.07549493051346L516.9167344911335,413.79852029574886L509.34149774292706,417.94028798357135L492.9284847884799,412.50201542902846L477.9583740717863,400.0016166540838L471.4653140018951,396.33706112057143L467.67769562779193,386.61107076097187L464.25080281312717,386.347371696683L470.9242256627375,367.2435551599476L466.95624450891506,360.8233018683318L478.3190996312247,360.8233018683318L479.76200186897825,348.4429995544692L490.0426803129727,356.25950426594954L497.4375542814598,359.4824025165028L514.2112927953455,355.72170197825676L515.8345578128183,349.79349848321067L520.3055527229994,349.3370686662161L520.3055527229994,412.07549493051346ZM422.58700069799204,169.2564109589705L427.27643297069125,186.23758436380785L421.685186799396,195.25244897328253L428.899697988164,206.88794257380368L433.94985582030165,224.6078418665245L432.3265908028288,235.719761450428L440.4429158901928,256.2581758634233L431.6051396839519,259.7013118813477L426.3746190720952,255.97088492873604L421.3244612399576,261.9922851097731L406.89543886242166,268.27423375807257L399.5005648939344,275.94771397614545L384.89117973667925,282.7355230064966L388.318072551344,292.0186709265331L390.4824259079745,305.14174061851645L400.7631043519688,312.6291783284105L412.1259594742784,325.84952904624333L404.91144828551046,339.77164613868376L397.69693709674243,343.5713794658882L400.58274157224963,362.9663342789297L398.7791137750577,368.0442270499036L392.46641648488566,362.1630436592709L382.9071891597681,361.09134274096095L368.4781667822321,366.44247139618597L350.80261436975053,365.1064148790251L348.09717267396246,373.1056230653719L337.81649422996816,364.8390658378353L331.8645224992345,366.44247139618597L310.4013517126498,357.3345487580373L306.25300777910815,363.7692098008097L289.2989064855035,363.5016307113383L291.82398540157214,342.21541023187456L301.9243010658473,321.45551161558114L273.06625631077543,315.94507332378043L263.5070289856578,307.91919292422244L264.7695684436922,294.26049225933025L260.6212245101507,287.2436373583548L262.96594064650026,265.99297034144047L259.5390478318355,232.21986822450776L271.6233540730219,232.21986822450776L276.67351190515944,219.9036579843605L281.7236697372971,189.8503277014479L277.93605136319377,178.3785678213046L281.9040325170163,171.3901410021765L298.67777103090174,169.56142534676883L302.2850266252858,176.8622532221343L315.99259788394494,160.0754240911249L311.30316561124573,147.4311695617389L310.4013517126498,127.77864760866964L325.55182520906254,132.16967078211928L338.3575825691257,126.83592324453207L338.7183081285641,140.28819924650975L359.0993022368337,148.3602012988158L358.7385766773953,160.6893394884653L379.1195707856649,154.22993125745938L390.4824259079745,144.6404007050121L413.02777337287444,158.23208210800613ZM446.6042402449863,420L446.57525040064564,418.71567834696816L453.6093988096943,415.8707438251495L455.5933893866055,404.17933864005954L471.4653140018951,396.33706112057143L471.4653140018951,396.33706112057143L477.9583740717863,400.0016166540838L492.9284847884799,412.50201542902846L509.34149774292706,417.94028798357135L516.9167344911335,413.79852029574886L519.6357757624118,420L446.6042402449863,420ZM331.8645224992345,366.44247139618597L332.5859736181114,371.7752676108644L329.519806362885,378.9457766796197L338.5379453488449,384.23618638613016L348.8186237928394,385.0282130305286L347.19535877536657,397.12303707022556L338.3575825691257,401.8307227919229L323.5678346321514,398.1703984645437L319.2391279188905,409.90584379006236L309.6799005937729,410.944819235639L306.25300777910815,406.26408807145367L295.0705154365178,416.12958316381855L285.330925331681,417.4231525774476L276.67351190515944,411.20445743184473L269.8197262758298,398.6938195906305L260.2604989507122,403.13593800242074L260.6212245101507,390.0351465747651L275.2306096674059,373.3715582375303L274.509158548529,365.9081864376228L283.7076603142082,368.57777978791273L289.2989064855035,363.5016307113383L306.25300777910815,363.7692098008097L310.4013517126498,357.3345487580373ZM260.6212245101507,287.2436373583548L264.7695684436922,294.26049225933025L263.5070289856578,307.91919292422244L257.73542003464354,308.47407095054973L253.22635054166344,305.69764005320826L255.39070389829382,288.3685453715734ZM262.96594064650026,265.99297034144047L260.6212245101507,287.2436373583548L255.39070389829382,288.3685453715734L253.22635054166344,305.69764005320826L235.73116090890107,291.73820750006826L225.45048246490674,293.980447714355L211.5625484265283,279.3454824077328L202.18368388112992,266.5636154576175L192.80481933573154,265.99297034144047L189.91901486022445,254.8211611965039L205.9713022552332,248.48159010596896L220.76105019220756,251.07835191462755L239.33841650328503,244.4330416339062L251.96381108362903,258.554491867734ZM277.93605136319377,178.3785678213046L281.7236697372971,189.8503277014479L276.67351190515944,219.9036579843605L271.6233540730219,232.21986822450776L259.5390478318355,232.21986822450776L262.96594064650026,265.99297034144047L251.96381108362903,258.554491867734L239.33841650328503,244.4330416339062L220.76105019220756,251.07835191462755L205.9713022552332,248.48159010596896L216.4323434789467,239.79241011408703L233.92753311170912,191.65329333259183L261.34267562902744,177.46897227061936ZM407.864288090044,420L402.92745770859915,418.71567834696816L400.8522424220112,420L276.2305666466443,420L276.2305666466443,420L275.9520607862826,419.49069389100214L276.67351190515944,411.20445743184473L285.330925331681,417.4231525774476L295.0705154365178,416.12958316381855L306.25300777910815,406.26408807145367L309.6799005937729,410.944819235639L319.2391279188905,409.90584379006236L323.5678346321514,398.1703984645437L338.3575825691257,401.8307227919229L347.19535877536657,397.12303707022556L348.8186237928394,385.0282130305286L348.8186237928394,385.0282130305286L360.90293003402564,389.2456353873845L363.24764617037533,383.7079468313202L383.08755193948724,378.4157530374348L387.59662143246726,388.7190748271523L416.27430340782007,396.33706112057143L414.10995005118957,410.6851387935253L417.70227840491,420L407.864288090044,420ZM338.79403850849394,99.34530445989526L332.94669917754976,109.75735958264681L338.3575825691257,126.83592324453207L338.3575825691257,126.83592324453207L325.55182520906254,132.16967078211928L310.4013517126498,127.77864760866964L302.2850266252858,108.16539147567778L302.15534589671944,99.34530445989526L338.79403850849394,99.34530445989526ZM391.87788204608023,99.34530445989526L393.9093187226392,104.975985126762L381.8250124814528,133.4217304500719L360.90293003402564,113.57068138531804L358.10550312648525,99.34530445989526L391.87788204608023,99.34530445989526ZM417.70227840491,420L414.10995005118957,410.6851387935253L416.27430340782007,396.33706112057143L416.27430340782007,396.33706112057143L432.86767914198634,398.43213064121505L442.9679948062615,391.8758039250092L460.46318443902385,391.08721369419527L464.25080281312717,386.347371696683L467.67769562779193,386.61107076097187L471.4653140018951,396.33706112057143L455.5933893866055,404.17933864005954L453.6093988096943,415.8707438251495L446.57525040064564,418.71567834696816L446.6042402449863,420L417.70227840491,420ZM520.3055527229994,349.3370686662161L515.8345578128183,349.79349848321067L514.2112927953455,355.72170197825676L497.4375542814598,359.4824025165028L490.0426803129727,356.25950426594954L479.76200186897825,348.4429995544692L477.7780112920671,338.1403062076158L479.40127630953987,334.32708211574186L482.2870807850471,327.49402371699375L491.12485699128786,328.04179479952995L497.9786426206175,325.026615948615L498.519730959775,322.0054580029116L502.30734933387816,320.6302189631822L503.75025157163185,313.73528307623565L508.25932106461187,312.35252586562524L511.3254883198382,306.8088250516603L517.4578228302911,306.8088250516603L518.5399995086063,308.7514335757105L520.3055527229994,307.8649428563602L520.3055527229994,349.3370686662161ZM440.4429158901928,256.2581758634233L450.0021432153104,266.5636154576175L464.9722539320039,269.128803460738L463.7097144739695,277.93068742162495L474.71184403684066,284.42766009110073L477.5976485123479,276.23115766091723L491.30521977100716,279.911024553546L493.2892103479183,289.7734926001965L508.0789582848927,291.45769159411907L517.4578228302911,306.8088250516603L511.3254883198382,306.8088250516603L508.25932106461187,312.35252586562524L503.75025157163185,313.73528307623565L502.30734933387816,320.6302189631822L498.519730959775,322.0054580029116L497.9786426206175,325.026615948615L491.12485699128786,328.04179479952995L482.2870807850471,327.49402371699375L479.40127630953987,334.32708211574186L470.20277454386064,328.58936930392565L460.8239099984624,330.2309152975972L445.31271094261115,320.905366289885L438.2785625335624,323.10475475451767L426.91570741125275,335.69003766310925L412.1259594742784,325.84952904624333L400.7631043519688,312.6291783284105L390.4824259079745,305.14174061851645L388.318072551344,292.0186709265331L384.89117973667925,282.7355230064966L399.5005648939344,275.94771397614545L406.89543886242166,268.27423375807257L421.3244612399576,261.9922851097731L426.3746190720952,255.97088492873604L431.6051396839519,259.7013118813477ZM519.6357757624118,420L516.9167344911335,413.79852029574886L516.9167344911335,413.79852029574886L520.3055527229994,412.07549493051346L520.3055527229994,420Z" style="fill: none; stroke-miterlimit: 2; stroke: rgb(204, 204, 204); stroke-opacity: 1; stroke-width: 1px;"/></g><g class="layer backplot"><g class="choroplethlayer"/></g><g class="layer frontplot"><g class="scatterlayer"><g class="trace scattergeo" style="opacity: 1;"><path class="point" d="M2.5,0A2.5,2.5 0 1,1 0,-2.5A2.5,2.5 0 0,1 2.5,0Z" transform="translate(373.76849538522697,345.4011840222372)" style="opacity: 1; stroke-width: 3px; fill: rgb(255, 0, 0); fill-opacity: 1; stroke: rgb(68, 68, 68); stroke-opacity: 0;"/><path class="point" d="M2.5,0A2.5,2.5 0 1,1 0,-2.5A2.5,2.5 0 0,1 2.5,0Z" transform="translate(405.98469924272797,208.4503192012005)" style="opacity: 1; stroke-width: 3px; fill: rgb(255, 0, 0); fill-opacity: 1; stroke: rgb(68, 68, 68); stroke-opacity: 0;"/><path class="point" d="M2.5,0A2.5,2.5 0 1,1 0,-2.5A2.5,2.5 0 0,1 2.5,0Z" transform="translate(350.4968898447903,218.38068057814917)" style="opacity: 1; stroke-width: 3px; fill: rgb(255, 0, 0); fill-opacity: 1; stroke: rgb(68, 68, 68); stroke-opacity: 0;"/><path class="point" d="M2.5,0A2.5,2.5 0 1,1 0,-2.5A2.5,2.5 0 0,1 2.5,0Z" transform="translate(313.8984289514965,321.031803532464)" style="opacity: 1; stroke-width: 3px; fill: rgb(255, 0, 0); fill-opacity: 1; stroke: rgb(68, 68, 68); stroke-opacity: 0;"/><path class="point" d="M2.5,0A2.5,2.5 0 1,1 0,-2.5A2.5,2.5 0 0,1 2.5,0Z" transform="translate(398.38723608256004,265.0953427475217)" style="opacity: 1; stroke-width: 3px; fill: rgb(255, 0, 0); fill-opacity: 1; stroke: rgb(68, 68, 68); stroke-opacity: 0;"/><path class="point" d="M2.5,0A2.5,2.5 0 1,1 0,-2.5A2.5,2.5 0 0,1 2.5,0Z" transform="translate(275.7563172458698,250.89747979313938)" style="opacity: 1; stroke-width: 3px; fill: rgb(255, 0, 0); fill-opacity: 1; stroke: rgb(68, 68, 68); stroke-opacity: 0;"/><path class="point" d="M2.5,0A2.5,2.5 0 1,1 0,-2.5A2.5,2.5 0 0,1 2.5,0Z" transform="translate(280.04369290830783,245.25548063550173)" style="opacity: 1; stroke-width: 3px; fill: rgb(255, 0, 0); fill-opacity: 1; stroke: rgb(68, 68, 68); stroke-opacity: 0;"/><path class="point" d="M2.5,0A2.5,2.5 0 1,1 0,-2.5A2.5,2.5 0 0,1 2.5,0Z" transform="translate(311.3453685718183,286.916463112017)" style="opacity: 1; stroke-width: 3px; fill: rgb(255, 0, 0); fill-opacity: 1; stroke: rgb(68, 68, 68); stroke-opacity: 0;"/><path class="point" d="M2.5,0A2.5,2.5 0 1,1 0,-2.5A2.5,2.5 0 0,1 2.5,0Z" transform="translate(439.571783648345,255.03212444346468)" style="opacity: 1; stroke-width: 3px; fill: rgb(255, 0, 0); fill-opacity: 1; stroke: rgb(68, 68, 68); stroke-opacity: 0;"/><path class="point" d="M2.5,0A2.5,2.5 0 1,1 0,-2.5A2.5,2.5 0 0,1 2.5,0Z" transform="translate(339.701613808837,175.87675471319062)" style="opacity: 1; stroke-width: 3px; fill: rgb(255, 0, 0); fill-opacity: 1; stroke: rgb(68, 68, 68); stroke-opacity: 0;"/><path class="point" d="M2.5,0A2.5,2.5 0 1,1 0,-2.5A2.5,2.5 0 0,1 2.5,0Z" transform="translate(335.3661462148147,216.43919043189635)" style="opacity: 1; stroke-width: 3px; fill: rgb(255, 0, 0); fill-opacity: 1; stroke: rgb(68, 68, 68); stroke-opacity: 0;"/><path class="point" d="M2.5,0A2.5,2.5 0 1,1 0,-2.5A2.5,2.5 0 0,1 2.5,0Z" transform="translate(368.01656009960766,328.603404149703)" style="opacity: 1; stroke-width: 3px; fill: rgb(255, 0, 0); fill-opacity: 1; stroke: rgb(68, 68, 68); stroke-opacity: 0;"/><path class="point" d="M2.5,0A2.5,2.5 0 1,1 0,-2.5A2.5,2.5 0 0,1 2.5,0Z" transform="translate(278.1249851445318,263.27503693614267)" style="opacity: 1; stroke-width: 3px; fill: rgb(255, 0, 0); fill-opacity: 1; stroke: rgb(68, 68, 68); stroke-opacity: 0;"/><path class="point" d="M2.5,0A2.5,2.5 0 1,1 0,-2.5A2.5,2.5 0 0,1 2.5,0Z" transform="translate(286.3219743468128,210.4854616680659)" style="opacity: 1; stroke-width: 3px; fill: rgb(255, 0, 0); fill-opacity: 1; stroke: rgb(68, 68, 68); stroke-opacity: 0;"/><path class="point" d="M2.5,0A2.5,2.5 0 1,1 0,-2.5A2.5,2.5 0 0,1 2.5,0Z" transform="translate(292.17506299519783,228.48039985811738)" style="opacity: 1; stroke-width: 3px; fill: rgb(255, 0, 0); fill-opacity: 1; stroke: rgb(68, 68, 68); stroke-opacity: 0;"/><path class="point" d="M2.5,0A2.5,2.5 0 1,1 0,-2.5A2.5,2.5 0 0,1 2.5,0Z" transform="translate(360.3678990706072,308.8545674258669)" style="opacity: 1; stroke-width: 3px; fill: rgb(255, 0, 0); fill-opacity: 1; stroke: rgb(68, 68, 68); stroke-opacity: 0;"/><path class="point" d="M2.5,0A2.5,2.5 0 1,1 0,-2.5A2.5,2.5 0 0,1 2.5,0Z" transform="translate(409.1782439595852,335.0501508459781)" style="opacity: 1; stroke-width: 3px; fill: rgb(255, 0, 0); fill-opacity: 1; stroke: rgb(68, 68, 68); stroke-opacity: 0;"/><path class="point" d="M2.5,0A2.5,2.5 0 1,1 0,-2.5A2.5,2.5 0 0,1 2.5,0Z" transform="translate(298.6379974126818,176.54445802669807)" style="opacity: 1; stroke-width: 3px; fill: rgb(255, 0, 0); fill-opacity: 1; stroke: rgb(68, 68, 68); stroke-opacity: 0;"/><path class="point" d="M2.5,0A2.5,2.5 0 1,1 0,-2.5A2.5,2.5 0 0,1 2.5,0Z" transform="translate(306.43418044181715,348.48967529274296)" style="opacity: 1; stroke-width: 3px; fill: rgb(255, 0, 0); fill-opacity: 1; stroke: rgb(68, 68, 68); stroke-opacity: 0;"/><path class="point" d="M2.5,0A2.5,2.5 0 1,1 0,-2.5A2.5,2.5 0 0,1 2.5,0Z" transform="translate(323.17349899176435,331.3310238352906)" style="opacity: 1; stroke-width: 3px; fill: rgb(255, 0, 0); fill-opacity: 1; stroke: rgb(68, 68, 68); stroke-opacity: 0;"/><path class="point" d="M2.5,0A2.5,2.5 0 1,1 0,-2.5A2.5,2.5 0 0,1 2.5,0Z" transform="translate(312.9098191445613,312.995465301022)" style="opacity: 1; stroke-width: 3px; fill: rgb(255, 0, 0); fill-opacity: 1; stroke: rgb(68, 68, 68); stroke-opacity: 0;"/></g><g class="trace scattergeo" style="opacity: 1;"><path class="js-line" d="M373.76849538522697,345.4011840222372L391.4136820652183,340.1323006600842L409.1782439595852,335.0501508459781" style="stroke-miterlimit: 2; fill: none; stroke: rgb(255, 0, 0); stroke-opacity: 1; stroke-width: 1px;"/><path class="point" d="M3,0A3,3 0 1,1 0,-3A3,3 0 0,1 3,0Z" transform="translate(373.76849538522697,345.4011840222372)" style="opacity: 1; stroke-width: 0px; fill: rgb(255, 0, 0); fill-opacity: 1;"/><path class="point" d="M3,0A3,3 0 1,1 0,-3A3,3 0 0,1 3,0Z" transform="translate(409.1782439595852,335.0501508459781)" style="opacity: 1; stroke-width: 0px; fill: rgb(255, 0, 0); fill-opacity: 1;"/></g><g class="trace scattergeo" style="opacity: 1;"><path class="js-line" d="M409.1782439595852,335.0501508459781L398.38723608256004,265.0953427475217" style="stroke-miterlimit: 2; fill: none; stroke: rgb(255, 0, 0); stroke-opacity: 1; stroke-width: 1px;"/><path class="point" d="M3,0A3,3 0 1,1 0,-3A3,3 0 0,1 3,0Z" transform="translate(409.1782439595852,335.0501508459781)" style="opacity: 1; stroke-width: 0px; fill: rgb(255, 0, 0); fill-opacity: 1;"/><path class="point" d="M3,0A3,3 0 1,1 0,-3A3,3 0 0,1 3,0Z" transform="translate(398.38723608256004,265.0953427475217)" style="opacity: 1; stroke-width: 0px; fill: rgb(255, 0, 0); fill-opacity: 1;"/></g><g class="trace scattergeo" style="opacity: 1;"><path class="js-line" d="M398.38723608256004,265.0953427475217L418.9093807175629,259.9288002878927L439.571783648345,255.03212444346468" style="stroke-miterlimit: 2; fill: none; stroke: rgb(255, 0, 0); stroke-opacity: 1; stroke-width: 1px;"/><path class="point" d="M3,0A3,3 0 1,1 0,-3A3,3 0 0,1 3,0Z" transform="translate(398.38723608256004,265.0953427475217)" style="opacity: 1; stroke-width: 0px; fill: rgb(255, 0, 0); fill-opacity: 1;"/><path class="point" d="M3,0A3,3 0 1,1 0,-3A3,3 0 0,1 3,0Z" transform="translate(439.571783648345,255.03212444346468)" style="opacity: 1; stroke-width: 0px; fill: rgb(255, 0, 0); fill-opacity: 1;"/></g><g class="trace scattergeo" style="opacity: 1;"><path class="js-line" d="M439.571783648345,255.03212444346468L423.04620181367756,231.8304467323312L405.98469924272797,208.4503192012005" style="stroke-miterlimit: 2; fill: none; stroke: rgb(255, 0, 0); stroke-opacity: 1; stroke-width: 1px;"/><path class="point" d="M3,0A3,3 0 1,1 0,-3A3,3 0 0,1 3,0Z" transform="translate(439.571783648345,255.03212444346468)" style="opacity: 1; stroke-width: 0px; fill: rgb(255, 0, 0); fill-opacity: 1;"/><path class="point" d="M3,0A3,3 0 1,1 0,-3A3,3 0 0,1 3,0Z" transform="translate(405.98469924272797,208.4503192012005)" style="opacity: 1; stroke-width: 0px; fill: rgb(255, 0, 0); fill-opacity: 1;"/></g><g class="trace scattergeo" style="opacity: 1;"><path class="js-line" d="M405.98469924272797,208.4503192012005L378.14567705284776,213.15827975497996L350.4968898447903,218.38068057814917" style="stroke-miterlimit: 2; fill: none; stroke: rgb(255, 0, 0); stroke-opacity: 1; stroke-width: 1px;"/><path class="point" d="M3,0A3,3 0 1,1 0,-3A3,3 0 0,1 3,0Z" transform="translate(405.98469924272797,208.4503192012005)" style="opacity: 1; stroke-width: 0px; fill: rgb(255, 0, 0); fill-opacity: 1;"/><path class="point" d="M3,0A3,3 0 1,1 0,-3A3,3 0 0,1 3,0Z" transform="translate(350.4968898447903,218.38068057814917)" style="opacity: 1; stroke-width: 0px; fill: rgb(255, 0, 0); fill-opacity: 1;"/></g><g class="trace scattergeo" style="opacity: 1;"><path class="js-line" d="M350.4968898447903,218.38068057814917L335.3661462148147,216.43919043189635" style="stroke-miterlimit: 2; fill: none; stroke: rgb(255, 0, 0); stroke-opacity: 1; stroke-width: 1px;"/><path class="point" d="M3,0A3,3 0 1,1 0,-3A3,3 0 0,1 3,0Z" transform="translate(350.4968898447903,218.38068057814917)" style="opacity: 1; stroke-width: 0px; fill: rgb(255, 0, 0); fill-opacity: 1;"/><path class="point" d="M3,0A3,3 0 1,1 0,-3A3,3 0 0,1 3,0Z" transform="translate(335.3661462148147,216.43919043189635)" style="opacity: 1; stroke-width: 0px; fill: rgb(255, 0, 0); fill-opacity: 1;"/></g><g class="trace scattergeo" style="opacity: 1;"><path class="js-line" d="M335.3661462148147,216.43919043189635L339.701613808837,175.87675471319062" style="stroke-miterlimit: 2; fill: none; stroke: rgb(255, 0, 0); stroke-opacity: 1; stroke-width: 1px;"/><path class="point" d="M3,0A3,3 0 1,1 0,-3A3,3 0 0,1 3,0Z" transform="translate(335.3661462148147,216.43919043189635)" style="opacity: 1; stroke-width: 0px; fill: rgb(255, 0, 0); fill-opacity: 1;"/><path class="point" d="M3,0A3,3 0 1,1 0,-3A3,3 0 0,1 3,0Z" transform="translate(339.701613808837,175.87675471319062)" style="opacity: 1; stroke-width: 0px; fill: rgb(255, 0, 0); fill-opacity: 1;"/></g><g class="trace scattergeo" style="opacity: 1;"><path class="js-line" d="M339.701613808837,175.87675471319062L319.16500286801875,176.062965277677L298.6379974126818,176.54445802669807" style="stroke-miterlimit: 2; fill: none; stroke: rgb(255, 0, 0); stroke-opacity: 1; stroke-width: 1px;"/><path class="point" d="M3,0A3,3 0 1,1 0,-3A3,3 0 0,1 3,0Z" transform="translate(339.701613808837,175.87675471319062)" style="opacity: 1; stroke-width: 0px; fill: rgb(255, 0, 0); fill-opacity: 1;"/><path class="point" d="M3,0A3,3 0 1,1 0,-3A3,3 0 0,1 3,0Z" transform="translate(298.6379974126818,176.54445802669807)" style="opacity: 1; stroke-width: 0px; fill: rgb(255, 0, 0); fill-opacity: 1;"/></g><g class="trace scattergeo" style="opacity: 1;"><path class="js-line" d="M298.6379974126818,176.54445802669807L286.3219743468128,210.4854616680659" style="stroke-miterlimit: 2; fill: none; stroke: rgb(255, 0, 0); stroke-opacity: 1; stroke-width: 1px;"/><path class="point" d="M3,0A3,3 0 1,1 0,-3A3,3 0 0,1 3,0Z" transform="translate(298.6379974126818,176.54445802669807)" style="opacity: 1; stroke-width: 0px; fill: rgb(255, 0, 0); fill-opacity: 1;"/><path class="point" d="M3,0A3,3 0 1,1 0,-3A3,3 0 0,1 3,0Z" transform="translate(286.3219743468128,210.4854616680659)" style="opacity: 1; stroke-width: 0px; fill: rgb(255, 0, 0); fill-opacity: 1;"/></g><g class="trace scattergeo" style="opacity: 1;"><path class="js-line" d="M286.3219743468128,210.4854616680659L292.17506299519783,228.48039985811738" style="stroke-miterlimit: 2; fill: none; stroke: rgb(255, 0, 0); stroke-opacity: 1; stroke-width: 1px;"/><path class="point" d="M3,0A3,3 0 1,1 0,-3A3,3 0 0,1 3,0Z" transform="translate(286.3219743468128,210.4854616680659)" style="opacity: 1; stroke-width: 0px; fill: rgb(255, 0, 0); fill-opacity: 1;"/><path class="point" d="M3,0A3,3 0 1,1 0,-3A3,3 0 0,1 3,0Z" transform="translate(292.17506299519783,228.48039985811738)" style="opacity: 1; stroke-width: 0px; fill: rgb(255, 0, 0); fill-opacity: 1;"/></g><g class="trace scattergeo" style="opacity: 1;"><path class="js-line" d="M292.17506299519783,228.48039985811738L280.04369290830783,245.25548063550173" style="stroke-miterlimit: 2; fill: none; stroke: rgb(255, 0, 0); stroke-opacity: 1; stroke-width: 1px;"/><path class="point" d="M3,0A3,3 0 1,1 0,-3A3,3 0 0,1 3,0Z" transform="translate(292.17506299519783,228.48039985811738)" style="opacity: 1; stroke-width: 0px; fill: rgb(255, 0, 0); fill-opacity: 1;"/><path class="point" d="M3,0A3,3 0 1,1 0,-3A3,3 0 0,1 3,0Z" transform="translate(280.04369290830783,245.25548063550173)" style="opacity: 1; stroke-width: 0px; fill: rgb(255, 0, 0); fill-opacity: 1;"/></g><g class="trace scattergeo" style="opacity: 1;"><path class="js-line" d="M280.04369290830783,245.25548063550173L275.7563172458698,250.89747979313938" style="stroke-miterlimit: 2; fill: none; stroke: rgb(255, 0, 0); stroke-opacity: 1; stroke-width: 1px;"/><path class="point" d="M3,0A3,3 0 1,1 0,-3A3,3 0 0,1 3,0Z" transform="translate(280.04369290830783,245.25548063550173)" style="opacity: 1; stroke-width: 0px; fill: rgb(255, 0, 0); fill-opacity: 1;"/><path class="point" d="M3,0A3,3 0 1,1 0,-3A3,3 0 0,1 3,0Z" transform="translate(275.7563172458698,250.89747979313938)" style="opacity: 1; stroke-width: 0px; fill: rgb(255, 0, 0); fill-opacity: 1;"/></g><g class="trace scattergeo" style="opacity: 1;"><path class="js-line" d="M275.7563172458698,250.89747979313938L278.1249851445318,263.27503693614267" style="stroke-miterlimit: 2; fill: none; stroke: rgb(255, 0, 0); stroke-opacity: 1; stroke-width: 1px;"/><path class="point" d="M3,0A3,3 0 1,1 0,-3A3,3 0 0,1 3,0Z" transform="translate(275.7563172458698,250.89747979313938)" style="opacity: 1; stroke-width: 0px; fill: rgb(255, 0, 0); fill-opacity: 1;"/><path class="point" d="M3,0A3,3 0 1,1 0,-3A3,3 0 0,1 3,0Z" transform="translate(278.1249851445318,263.27503693614267)" style="opacity: 1; stroke-width: 0px; fill: rgb(255, 0, 0); fill-opacity: 1;"/></g><g class="trace scattergeo" style="opacity: 1;"><path class="js-line" d="M278.1249851445318,263.27503693614267L294.86716578868345,275.04998426158113L311.3453685718183,286.916463112017" style="stroke-miterlimit: 2; fill: none; stroke: rgb(255, 0, 0); stroke-opacity: 1; stroke-width: 1px;"/><path class="point" d="M3,0A3,3 0 1,1 0,-3A3,3 0 0,1 3,0Z" transform="translate(278.1249851445318,263.27503693614267)" style="opacity: 1; stroke-width: 0px; fill: rgb(255, 0, 0); fill-opacity: 1;"/><path class="point" d="M3,0A3,3 0 1,1 0,-3A3,3 0 0,1 3,0Z" transform="translate(311.3453685718183,286.916463112017)" style="opacity: 1; stroke-width: 0px; fill: rgb(255, 0, 0); fill-opacity: 1;"/></g><g class="trace scattergeo" style="opacity: 1;"><path class="js-line" d="M311.3453685718183,286.916463112017L312.9098191445613,312.995465301022" style="stroke-miterlimit: 2; fill: none; stroke: rgb(255, 0, 0); stroke-opacity: 1; stroke-width: 1px;"/><path class="point" d="M3,0A3,3 0 1,1 0,-3A3,3 0 0,1 3,0Z" transform="translate(311.3453685718183,286.916463112017)" style="opacity: 1; stroke-width: 0px; fill: rgb(255, 0, 0); fill-opacity: 1;"/><path class="point" d="M3,0A3,3 0 1,1 0,-3A3,3 0 0,1 3,0Z" transform="translate(312.9098191445613,312.995465301022)" style="opacity: 1; stroke-width: 0px; fill: rgb(255, 0, 0); fill-opacity: 1;"/></g><g class="trace scattergeo" style="opacity: 1;"><path class="js-line" d="M312.9098191445613,312.995465301022L313.8984289514965,321.031803532464" style="stroke-miterlimit: 2; fill: none; stroke: rgb(255, 0, 0); stroke-opacity: 1; stroke-width: 1px;"/><path class="point" d="M3,0A3,3 0 1,1 0,-3A3,3 0 0,1 3,0Z" transform="translate(312.9098191445613,312.995465301022)" style="opacity: 1; stroke-width: 0px; fill: rgb(255, 0, 0); fill-opacity: 1;"/><path class="point" d="M3,0A3,3 0 1,1 0,-3A3,3 0 0,1 3,0Z" transform="translate(313.8984289514965,321.031803532464)" style="opacity: 1; stroke-width: 0px; fill: rgb(255, 0, 0); fill-opacity: 1;"/></g><g class="trace scattergeo" style="opacity: 1;"><path class="js-line" d="M313.8984289514965,321.031803532464L306.43418044181715,348.48967529274296" style="stroke-miterlimit: 2; fill: none; stroke: rgb(255, 0, 0); stroke-opacity: 1; stroke-width: 1px;"/><path class="point" d="M3,0A3,3 0 1,1 0,-3A3,3 0 0,1 3,0Z" transform="translate(313.8984289514965,321.031803532464)" style="opacity: 1; stroke-width: 0px; fill: rgb(255, 0, 0); fill-opacity: 1;"/><path class="point" d="M3,0A3,3 0 1,1 0,-3A3,3 0 0,1 3,0Z" transform="translate(306.43418044181715,348.48967529274296)" style="opacity: 1; stroke-width: 0px; fill: rgb(255, 0, 0); fill-opacity: 1;"/></g><g class="trace scattergeo" style="opacity: 1;"><path class="js-line" d="M306.43418044181715,348.48967529274296L323.17349899176435,331.3310238352906" style="stroke-miterlimit: 2; fill: none; stroke: rgb(255, 0, 0); stroke-opacity: 1; stroke-width: 1px;"/><path class="point" d="M3,0A3,3 0 1,1 0,-3A3,3 0 0,1 3,0Z" transform="translate(306.43418044181715,348.48967529274296)" style="opacity: 1; stroke-width: 0px; fill: rgb(255, 0, 0); fill-opacity: 1;"/><path class="point" d="M3,0A3,3 0 1,1 0,-3A3,3 0 0,1 3,0Z" transform="translate(323.17349899176435,331.3310238352906)" style="opacity: 1; stroke-width: 0px; fill: rgb(255, 0, 0); fill-opacity: 1;"/></g><g class="trace scattergeo" style="opacity: 1;"><path class="js-line" d="M323.17349899176435,331.3310238352906L341.63317341948823,320.02056228273113L360.3678990706072,308.8545674258669" style="stroke-miterlimit: 2; fill: none; stroke: rgb(255, 0, 0); stroke-opacity: 1; stroke-width: 1px;"/><path class="point" d="M3,0A3,3 0 1,1 0,-3A3,3 0 0,1 3,0Z" transform="translate(323.17349899176435,331.3310238352906)" style="opacity: 1; stroke-width: 0px; fill: rgb(255, 0, 0); fill-opacity: 1;"/><path class="point" d="M3,0A3,3 0 1,1 0,-3A3,3 0 0,1 3,0Z" transform="translate(360.3678990706072,308.8545674258669)" style="opacity: 1; stroke-width: 0px; fill: rgb(255, 0, 0); fill-opacity: 1;"/></g><g class="trace scattergeo" style="opacity: 1;"><path class="js-line" d="M360.3678990706072,308.8545674258669L368.01656009960766,328.603404149703" style="stroke-miterlimit: 2; fill: none; stroke: rgb(255, 0, 0); stroke-opacity: 1; stroke-width: 1px;"/><path class="point" d="M3,0A3,3 0 1,1 0,-3A3,3 0 0,1 3,0Z" transform="translate(360.3678990706072,308.8545674258669)" style="opacity: 1; stroke-width: 0px; fill: rgb(255, 0, 0); fill-opacity: 1;"/><path class="point" d="M3,0A3,3 0 1,1 0,-3A3,3 0 0,1 3,0Z" transform="translate(368.01656009960766,328.603404149703)" style="opacity: 1; stroke-width: 0px; fill: rgb(255, 0, 0); fill-opacity: 1;"/></g><g class="trace scattergeo" style="opacity: 1;"><path class="js-line" d="M368.01656009960766,328.603404149703L373.76849538522697,345.4011840222372" style="stroke-miterlimit: 2; fill: none; stroke: rgb(255, 0, 0); stroke-opacity: 1; stroke-width: 1px;"/><path class="point" d="M3,0A3,3 0 1,1 0,-3A3,3 0 0,1 3,0Z" transform="translate(368.01656009960766,328.603404149703)" style="opacity: 1; stroke-width: 0px; fill: rgb(255, 0, 0); fill-opacity: 1;"/><path class="point" d="M3,0A3,3 0 1,1 0,-3A3,3 0 0,1 3,0Z" transform="translate(373.76849538522697,345.4011840222372)" style="opacity: 1; stroke-width: 0px; fill: rgb(255, 0, 0); fill-opacity: 1;"/></g></g></g></g></g><g class="funnelarealayer"/><g class="pielayer"/><g class="treemaplayer"/><g class="sunburstlayer"/><g class="glimages"/><defs id="topdefs-0b14f3"><g class="clips"/></defs><g class="layer-above"><g class="imagelayer"/><g class="shapelayer"/></g><g class="infolayer"><g class="g-gtitle"><text class="gtitle" x="35" y="50" text-anchor="start" dy="0em" style="font-family: 'Open Sans', verdana, arial, sans-serif; font-size: 17px; fill: rgb(42, 63, 95); opacity: 1; font-weight: normal; white-space: pre;"><tspan class="line" dy="0em" x="35" y="50">msg Locations TSP </tspan><tspan class="line" dy="1.3em" x="35" y="50">​<tspan style="font-size:70%" dy="0.3em">Distance Type: great_circle </tspan><tspan dy="-0.21em">​</tspan></tspan><tspan class="line" dy="2.6em" x="35" y="50">​<tspan style="font-size:70%" dy="0.3em">Solver Type: ortools </tspan><tspan dy="-0.21em">​</tspan></tspan><tspan class="line" dy="3.9000000000000004em" x="35" y="50">​<tspan style="font-size:70%" dy="0.3em">(Calculated) Traveled Distance: 2322.00 km</tspan><tspan dy="-0.21em">​</tspan></tspan></text></g></g></svg>